<?xml version="1.0" encoding="utf-8"?>
<!-- Generator: Adobe Illustrator 28.3.0, SVG Export Plug-In . SVG Version: 6.00 Build 0)  -->
<svg version="1.1" id="Capa_1" xmlns="http://www.w3.org/2000/svg" xmlns:xlink="http://www.w3.org/1999/xlink" x="0px" y="0px"
	 viewBox="0 0 901.5 156.2" style="enable-background:new 0 0 901.5 156.2;" xml:space="preserve">
<style type="text/css">
	.st0{fill:#FFFFFF;stroke:#000000;stroke-width:3;stroke-miterlimit:10;}
	.st1{fill:#D9000D;}
	.st2{fill:#FFFFFF;stroke:#D9000D;stroke-width:5;stroke-miterlimit:10;}
</style>
<path class="st0" d="M833.4,142.8H152.8c-5.2,0-9.5-4.2-9.5-9.5v-29.2c0-5.2,4.2-9.5,9.5-9.5h680.7c5.2,0,9.5,4.2,9.5,9.5v29.2
	C842.9,138.6,838.6,142.8,833.4,142.8z"/>
<path id="Trazado_90_00000081608937118326720180000017172105601733801352_" class="st1" d="M204.4,57.1l-2.5,23.3h-58.7v-1.7h2.1
	c1.7,0,3.3-0.4,4.6-0.8c0.8-0.4,1.7-1.2,2.1-2.5c0.4-2.1,0.8-4.2,0.4-6.2V25.5c0-2.1,0-4.2-0.4-6.2c-0.4-0.8-1.2-1.7-2.1-2.1
	c-1.2-0.8-2.9-1.2-4.6-0.8h-2.1v-2.1h35v1.7h-2.5c-1.7,0-3.3,0.4-5,1.2c-0.8,0.4-1.2,1.2-1.7,2.5c-0.8,1.7-0.8,3.7-0.8,5.8v42.1
	c0,2.1,0,4.2,0.4,6.2c0.4,0.8,1.2,1.7,2.1,2.1c2.1,0.4,3.7,0.4,5.8,0.4h5.4c2.9,0,5.8-0.4,8.7-1.7c2.5-1.2,4.6-3.3,6.2-5.8
	c2.1-3.7,3.7-7.5,5-11.7L204.4,57.1z"/>
<path id="Trazado_91_00000039848133040857003820000008643062443730466224_" class="st1" d="M260,18v26.7h1.2
	c3.3,0.4,7.1-1.2,9.2-3.7c2.1-3.3,3.3-7.5,3.3-11.2h1.7v34.6h-1.7c-0.4-3.3-1.2-6.2-2.5-9.2c-0.8-2.1-2.5-3.7-4.2-5
	c-2.1-0.8-4.6-1.2-7.1-1.2v18.7c0,2.1,0,4.6,0.4,6.7c0.4,0.8,0.8,1.7,1.7,2.1c1.2,0.4,2.5,0.8,4.2,0.8h3.7
	c10.8,0.8,20.8-6.7,22.9-17.5h1.7l-2.9,20.8h-57v-1.7h2.1c1.7,0,3.3-0.4,4.6-0.8c0.8-0.4,1.7-1.2,2.1-2.5c0.4-2.1,0.8-4.2,0.4-6.2
	V25.5c0-1.7,0-3.7-0.4-5.4c-0.4-1.2-0.8-2.1-1.7-2.5c-1.7-0.8-3.3-1.7-5-1.2h-2.1v-2.1h55.4v19.6h-1.7c-0.4-3.7-1.7-7.1-4.2-10.4
	c-2.1-2.1-4.6-3.7-7.1-4.6c-3.3-0.8-6.7-0.8-10.4-0.8L260,18z"/>
<path id="Trazado_92_00000046304935793250136240000011491311258936404109_" class="st1" d="M365.9,41.7l18.3,27.1
	c1.7,2.9,3.7,5.8,6.2,8.3c1.2,0.8,2.9,1.7,4.6,1.7v1.7H363v-1.7c1.7,0,3.3-0.4,5-1.2c0.8-0.4,1.2-1.2,1.2-2.1c0-0.4,0-1.2-0.4-1.7
	c-0.8-2.1-2.1-3.7-3.3-5.4l-9.6-14.2l-10,12.5c-2.1,2.1-3.7,4.6-4.6,7.5c0,0.8,0.4,2.1,1.2,2.5c0.8,0.8,2.1,1.7,3.3,1.7
	c1.2,0.4,2.9,0.4,4.2,0.4v1.7h-25.4v-1.7c2.5-0.4,4.6-1.2,6.7-2.5c3.3-2.9,6.7-5.8,9.2-9.2l12.9-16.2l-16.7-24.6
	c-2.9-4.2-4.2-6.2-4.6-6.7c-0.8-0.8-1.7-1.7-2.5-2.1c-1.2-0.4-2.1-0.8-3.3-0.8v-2.5h32.9v1.7h-1.7c-1.2,0-2.9,0-3.7,0.8
	c-0.8,0.4-1.2,1.2-1.2,2.1s0,1.2,0.4,1.7l3.3,5l8.3,12.5l5.8-7.9c2.5-2.5,4.6-5.8,5.4-9.2c0-0.8-0.4-1.7-0.8-2.5s-1.2-1.2-2.1-1.7
	c-1.2-0.4-2.9-0.8-4.6-0.8v-1.7h24.2v1.7c-1.7,0-3.3,0.4-4.6,0.8c-0.8,0.8-2.1,1.7-3.3,2.5c-0.8,0.8-2.9,3.3-6.2,7.1L365.9,41.7z"/>
<path id="Trazado_93_00000071542037091397498360000002957374965570611898_" class="st1" d="M459.8,78.3V80h-34.6v-1.7h2.1
	c1.7,0,3.3-0.4,4.6-0.8c0.8-0.4,1.7-1.2,2.1-2.5c0.4-2.1,0.8-4.2,0.4-6.2V25.5c0-2.1,0-4.2-0.4-6.2c-0.4-0.8-1.2-1.7-2.1-2.1
	c-1.2-0.8-2.9-0.8-4.6-0.8h-2.1v-2.1h34.6v1.7h-2.1c-1.7,0-3.3,0.4-4.6,0.8c-0.8,0.8-1.7,1.7-2.1,2.9c-0.4,2.1-0.8,4.2-0.4,6.2v43.3
	c0,2.1,0,4.2,0.4,6.2c0.4,0.8,1.2,1.7,2.1,2.1c1.2,0.8,2.9,0.8,4.6,0.8H459.8z"/>
<path id="Trazado_94_00000023251608749867127840000009149319583002937766_" class="st1" d="M513.2,14.2L545.7,55V26.7
	c0.4-2.9-0.4-5.4-1.7-7.9c-2.1-2.1-5-2.9-7.9-2.9v-1.7h21.7v1.7c-2.1,0-3.7,0.4-5.4,1.2c-0.8,0.8-1.7,1.7-2.1,2.9
	c-0.8,2.1-0.8,4.2-0.8,6.7v55h-1.7l-44.6-55v42.1c-0.4,2.9,0.4,5.8,2.5,7.5c1.7,1.2,3.7,2.1,5.8,2.1h1.7V80h-23.3v-1.7
	c2.9,0.4,5.4-0.4,7.5-2.1c1.7-2.1,2.5-4.6,2.1-7.5V22.1l-1.2-1.7c-0.8-1.2-2.1-2.5-3.7-3.3c-1.2-0.8-2.9-0.8-4.6-0.8v-2.1H513.2z"/>
<path id="Trazado_95_00000093887210671565664910000004998196975195968899_" class="st1" d="M647.1,14.2v17.9h-1.7
	c-0.8-3.3-1.7-6.2-3.3-8.7c-1.2-1.7-3.3-3.3-5-4.2c-2.1-0.8-4.2-0.8-6.7-0.8h-5v50.8c0,2.1,0,4.2,0.4,6.2c0.4,0.8,1.2,1.7,2.1,2.1
	c1.2,0.8,2.9,0.8,4.6,0.8h2.1V80H600v-1.7h2.1c1.7,0,3.3-0.4,4.6-0.8c0.8-0.4,1.7-1.2,2.1-2.5c0.4-2.1,0.8-4.2,0.4-6.2V18h-4.6
	c-3.3-0.4-7.1,0.8-9.6,2.9c-2.9,2.9-5,7.1-5.4,11.2H588V14.2H647.1z"/>
<path id="Trazado_96_00000169559137393765987550000013548099713611781504_" class="st1" d="M711.8,13.4c17.9-1.7,33.7,11.7,35.4,30
	c0,1.2,0,2.5,0,3.7c0,7.9-2.5,15.8-7.5,22.1c-6.7,8.3-16.7,13.3-27.5,12.5c-10.4,0.4-20.8-3.7-27.5-12.1c-5-6.2-7.9-14.6-7.5-22.5
	c-0.4-9.2,3.3-17.9,10-24.6C693.5,16.3,702.7,13,711.8,13.4z M712.3,16.7c-6.2,0-11.7,3.7-13.7,9.2c-2.9,7.1-4.2,14.2-3.7,21.7
	c0,11.2,2.1,19.6,5.8,25c2.5,3.7,7.1,5.8,11.7,5.8c2.9,0,5.8-0.8,8.3-2.5c3.3-2.5,5.4-5.8,6.7-10c1.7-5.8,2.5-11.7,2.5-17.9
	c0.4-6.7-0.4-13.3-2.5-19.6c-1.2-3.7-3.3-6.7-6.2-9.2C718.5,17.5,715.6,16.3,712.3,16.7z"/>
<path id="Trazado_97_00000101093479840629145380000013881644281068787387_" class="st1" d="M800.7,14.2L833.2,55V26.7
	c0.4-2.9-0.4-5.4-1.7-7.9c-2.1-2.1-5-2.9-7.9-2.9v-1.7h21.7v1.7c-2.1,0-3.7,0.4-5.4,1.2c-0.8,0.8-1.7,1.7-2.1,2.9
	c-0.8,2.1-0.8,4.2-0.8,6.7v55h-1.7l-44.6-55v42.1c-0.4,2.9,0.4,5.8,2.5,7.5c1.7,1.2,3.7,2.1,5.8,2.1h1.7V80h-23.3v-1.7
	c2.9,0.4,5.4-0.4,7.5-2.1c1.7-2.1,2.5-4.6,2.1-7.5V22.1l-1.2-1.7c-0.8-1.2-2.1-2.5-3.7-3.3c-1.2-0.8-2.9-0.8-4.6-0.8v-2.1H800.7z"/>
<path id="Trazado_98_00000147931378607750092600000013644632769008569770_" d="M163.9,118.3v7.5c0,0.8,0,1.7,0.4,2.5
	c0,0.4,0.4,0.8,0.8,0.8c0.8,0.4,1.7,0.4,2.5,0.4v0.4h-13.3v-0.8c0.8,0,1.7,0,2.5-0.4c0.4,0,0.8-0.4,0.8-0.8c0.4-0.8,0.4-1.7,0.4-2.5
	v-17.1c0-0.8,0-1.7-0.4-2.5c0-0.4-0.4-0.8-0.8-0.8c-0.8-0.4-1.7-0.4-2.5-0.4v-0.8H166c2.9-0.4,5.8,0.4,8.3,2.1
	c1.7,1.2,2.5,2.9,2.5,5c0,1.7-0.4,3.3-1.7,4.6c-1.7,1.2-2.9,2.1-4.6,2.1C168.5,117.9,166,118.3,163.9,118.3z M163.9,105.4v11.2
	c0.4,0,0.8,0,0.8,0c1.2,0,2.5-0.4,3.7-1.2c0.8-1.2,1.2-2.9,1.2-4.2c0-1.7-0.4-2.9-1.2-4.2c-0.8-0.8-2.5-1.7-3.7-1.2L163.9,105.4z"/>
<path id="Trazado_99_00000036250026714602377260000007594279664885271227_" d="M228.4,117.9v7.5c0,0.8,0,1.7,0.4,2.5
	c0,0.4,0.4,0.8,0.8,0.8c0.8,0.4,1.7,0.4,2.5,0.4v0.8h-13.7v-0.8c0.8,0,1.7,0,2.5-0.4c0.4,0,0.8-0.4,0.8-0.8c0.4-0.8,0.4-1.7,0.4-2.5
	v-17.1c0-0.8,0-1.7-0.4-2.5c0-0.4-0.4-0.8-0.8-0.8c-0.8-0.4-1.7-0.4-2.5-0.4v-0.8h12.5c2.5,0,4.6,0,7.1,0.8c1.2,0.4,2.5,1.2,3.7,2.5
	c0.8,1.2,1.2,2.5,1.2,4.2s-0.8,3.7-2.1,5c-1.2,0.8-2.5,1.7-3.7,1.7l6.2,8.7c0.4,0.8,1.2,1.7,1.7,2.1s1.2,0.8,1.7,0.8v0.4h-8.3
	l-8.3-12.1H228.4z M228.4,105v11.7h1.2c1.2,0,2.9,0,4.2-0.4c0.8-0.4,1.7-0.8,2.1-1.7c0.4-0.8,0.8-2.1,0.8-3.3
	c0.4-2.9-1.2-5.4-4.2-5.8c-0.4,0-1.2,0-1.7,0L228.4,105z"/>
<path id="Trazado_100_00000154420543350136885670000011022396711839335615_" d="M301.6,103.3c7.1-0.4,13.7,4.6,14.2,12.1
	c0,0.4,0,0.8,0,1.7c0,3.3-0.8,6.2-2.9,8.7c-2.5,3.3-6.7,5.4-10.8,5c-4.2,0.4-8.3-1.7-10.8-5c-2.1-2.5-3.3-5.8-2.9-9.2
	c0-3.7,1.2-7.1,4.2-10C294.5,104.6,297.9,102.9,301.6,103.3z M302,104.6c-2.5,0-4.6,1.7-5.4,3.7c-1.2,2.9-1.7,5.8-1.7,8.7
	c-0.4,3.3,0.4,7.1,2.5,10c1.2,1.7,2.9,2.5,4.6,2.1c1.2,0,2.5-0.4,3.3-0.8c1.2-0.8,2.1-2.5,2.5-4.2c0.8-2.5,0.8-4.6,0.8-7.1
	s-0.4-5.4-0.8-7.9c-0.4-1.2-1.2-2.9-2.5-3.7C304.1,105,303.3,104.6,302,104.6L302,104.6z"/>
<path id="Trazado_101_00000098195068954158413880000016317103211475154054_" d="M366.9,118.3v7.5c0,0.8,0,1.7,0.4,2.5
	c0,0.4,0.4,0.8,0.8,0.8c0.8,0.4,1.7,0.4,2.5,0.4v0.4h-13.3v-0.8c0.8,0,1.7,0,2.5-0.4c0.4,0,0.8-0.4,0.8-0.8c0.4-0.8,0.4-1.7,0.4-2.5
	v-17.1c0-0.8,0-1.7-0.4-2.5c0-0.4-0.4-0.8-0.8-0.8c-0.8-0.4-1.7-0.4-2.5-0.4v-0.8H369c2.9-0.4,5.8,0.4,8.3,2.1
	c1.7,1.2,2.5,2.9,2.5,5c0,1.7-0.4,3.3-1.7,4.6c-1.2,1.2-2.9,2.1-4.6,2.1C371.5,117.9,369.4,118.3,366.9,118.3z M366.9,105.4v11.2
	c0.4,0,0.8,0,0.8,0c1.2,0,2.5-0.4,3.7-1.2c0.8-1.2,1.2-2.9,1.2-4.2c0-1.7-0.4-2.9-1.2-4.2c-0.8-0.8-2.5-1.7-3.7-1.2L366.9,105.4z"/>
<path id="Trazado_102_00000093896681578127324430000004864439467717783943_" d="M435.1,129.6v0.4h-13.7v-0.8h0.8
	c0.8,0,1.2,0,1.7-0.4s0.8-0.4,0.8-0.8c0-0.8,0.4-1.7,0.4-2.5v-17.5c0-0.8,0-1.7-0.4-2.5c0-0.4-0.4-0.8-0.8-0.8
	c-0.4-0.4-1.2-0.4-1.7-0.4h-0.8v-0.8h13.7v0.8h-0.8c-0.8,0-1.2,0-1.7,0.4c-0.4,0.4-0.8,0.4-0.8,0.8c0,0.8-0.4,1.7-0.4,2.5v17.5
	c0,0.8,0,1.7,0.4,2.5c0,0.4,0.4,0.8,0.8,0.8c0.4,0.4,1.2,0.4,1.7,0.4L435.1,129.6z"/>
<path id="Trazado_103_00000150087482937133392060000010890663850844268166_" d="M486.6,105.4v10.8h0.4c1.2,0,2.9-0.4,3.7-1.7
	c0.8-1.2,1.2-2.9,1.2-4.6h0.8v13.7H492c0-1.2-0.4-2.5-0.8-3.7c-0.4-0.8-0.8-1.7-1.7-2.1c-1.2-0.4-2.1-0.4-2.9-0.4v7.5
	c0,0.8,0,1.7,0,2.5c0,0.4,0.4,0.4,0.8,0.8s1.2,0.4,1.7,0.4h1.7c4.6,0.4,8.3-2.5,9.2-7.1h0.8l-1.2,8.3h-22.9v-0.8h0.8
	c0.8,0,1.2,0,1.7-0.4s0.8-0.4,0.8-0.8c0-0.8,0.4-1.7,0.4-2.5v-17.5c0-0.8,0-1.7,0-2.1s-0.4-0.8-0.8-1.2c-0.4-0.4-1.2-0.4-2.1-0.4
	h-0.8v-0.8h22.1v7.9h-0.8c0-1.7-0.8-2.9-1.7-4.2c-0.8-0.8-1.7-1.7-2.9-1.7c-1.2-0.4-2.9-0.4-4.2-0.4L486.6,105.4z"/>
<path id="Trazado_104_00000072972240570333719180000014107419434445605043_" d="M542.3,130v-0.8h0.8c0.4,0,1.2,0,1.7-0.4
	s0.8-0.4,0.8-0.8c0-0.8,0.4-1.7,0-2.5v-17.5c0-0.8,0-1.7-0.4-2.5c0-0.4-0.4-0.8-0.8-0.8c-0.4-0.4-1.2-0.4-1.7-0.4h-0.4v-0.8h11.7
	c2.5,0,5,0.4,7.5,1.2c2.1,0.8,4.2,2.5,5.4,4.6c2.1,3.7,2.5,8.3,0.8,12.5c-0.4,1.2-1.2,2.9-2.5,3.7c-0.8,0.8-2.1,1.7-3.3,2.5
	c-1.2,0.8-2.9,1.2-4.6,1.2c-1.2,0-2.5,0.4-3.7,0.4L542.3,130z M552.3,105v20.8c0,0.8,0,1.2,0,2.1c0,0.4,0.4,0.4,0.4,0.4
	c0.4,0.4,0.8,0.4,1.7,0.4c2.1,0,3.7-0.8,5-2.1c1.7-2.9,2.5-5.8,2.5-9.2c0-2.9-0.4-5.4-1.7-7.9c-0.8-1.2-1.7-2.5-3.3-3.3
	C555.2,105.4,553.9,105,552.3,105L552.3,105z"/>
<path id="Trazado_105_00000176745513848597018730000004749196906402902690_" d="M626.5,122.5h-9.2L616,125c-0.4,0.8-0.4,1.2-0.4,2.1
	s0.4,1.2,0.8,1.7c0.8,0.4,1.7,0.4,2.5,0.4v0.8h-8.7v-0.8c0.8,0,1.7-0.4,2.5-1.2c0.8-1.2,1.7-2.5,2.1-4.2l9.6-21.2h0.4l9.6,21.7
	c0.4,1.2,1.2,2.9,2.1,3.7c0.4,0.4,1.2,0.8,1.7,0.8v1.2h-12.9v-0.8h0.4c0.8,0,1.7,0,2.1-0.4c0.4-0.4,0.4-0.4,0.4-0.8
	c0-0.4,0-0.4,0-0.8c0,0-0.4-0.4-0.4-1.7L626.5,122.5z M626,121.2l-3.7-9.2l-4.2,9.2H626z"/>
<path id="Trazado_106_00000169552746906729387090000012035177406725544631_" d="M680.1,130v-0.8h0.8c0.4,0,1.2,0,1.7-0.4
	c0.4-0.4,0.8-0.4,0.8-0.8c0-0.8,0.4-1.7,0-2.5v-17.5c0-0.8,0-1.7-0.4-2.5c0-0.4-0.4-0.8-0.8-0.8c-0.4-0.4-1.2-0.4-1.7-0.4h-0.8v-0.8
	h11.7c2.5,0,5,0.4,7.5,1.2c2.1,0.8,4.2,2.5,5.4,4.6c2.1,3.7,2.5,8.3,0.8,12.5c-0.4,1.2-1.2,2.9-2.5,3.7c-0.8,0.8-2.1,1.7-3.3,2.5
	c-1.2,0.8-2.9,1.2-4.6,1.2c-1.2,0-2.5,0.4-3.7,0.4L680.1,130z M690.5,105v20.8c0,0.8,0,1.2,0,2.1c0,0.4,0.4,0.4,0.4,0.4
	c0.4,0.4,0.8,0.4,1.7,0.4c2.1,0,3.7-0.8,5-2.1c1.7-2.9,2.5-5.8,2.5-9.2c0-2.9-0.4-5.4-1.7-7.9c-0.8-1.2-1.7-2.5-3.3-3.3
	C693.4,105.4,691.7,105,690.5,105z"/>
<path id="Trazado_107_00000121980075992101819250000003671352355022463128_" d="M757.6,105.4v10.8h0.4c1.2,0,2.9-0.4,3.7-1.7
	c0.8-1.2,1.2-2.9,1.2-4.6h0.8v13.7H763c0-1.2-0.4-2.5-0.8-3.7c-0.4-0.8-0.8-1.7-1.7-2.1c-0.8-0.4-2.1-0.4-2.9-0.4v7.5
	c0,0.8,0,1.7,0,2.5c0,0.4,0.4,0.4,0.8,0.8c0.4,0.4,1.2,0.4,1.7,0.4h1.7c4.6,0.4,8.3-2.5,9.2-7.1h0.8l-1.2,8.3h-22.9v-0.8h0.8
	c0.8,0,1.2,0,1.7-0.4c0.4-0.4,0.8-0.4,0.8-0.8c0-0.8,0.4-1.7,0.4-2.5v-17.5c0-0.8,0-1.7,0-2.1s-0.4-0.8-0.8-1.2
	c-0.4-0.4-1.2-0.4-2.1-0.4h-0.8v-0.8h22.1v7.9h-0.8c0-1.7-0.8-2.9-1.7-4.2c-0.8-0.8-1.7-1.7-2.9-1.7c-1.2-0.4-2.9-0.4-4.2-0.4
	L757.6,105.4z"/>
<path id="Trazado_108_00000168116905876902112740000012418310786451659445_" d="M830.8,102.9l0.4,8.7h-0.8c-0.4-2.1-1.2-3.7-2.9-5.4
	c-1.2-1.2-2.9-2.1-4.6-2.1c-1.2,0-2.1,0.4-3.3,1.2c-0.8,0.4-1.2,1.7-1.2,2.5c0,0.4,0,1.2,0.4,1.7c0.4,0.8,1.2,1.2,1.7,1.7
	c1.2,0.8,2.9,1.7,4.2,2.1c2.5,0.8,4.6,2.5,6.2,4.2c1.2,1.2,1.7,2.9,1.7,4.6c0,2.1-0.8,4.2-2.5,5.8c-1.7,1.7-4.2,2.5-6.7,2.5
	c-0.8,0-1.7,0-2.5-0.4c-0.8-0.4-2.1-0.4-2.9-0.8c-0.4-0.4-0.8-0.4-1.7-0.4c-0.4,0-0.8,0-1.2,0.4s-0.8,0.8-0.8,1.2h-0.8v-10h0.8
	c0.4,2.5,1.7,4.6,3.3,6.2c1.2,1.2,3.3,2.1,5.4,2.1c1.2,0,2.5-0.4,3.3-1.2c1.2-1.2,1.7-2.9,0.8-4.6c-0.4-0.8-0.8-1.2-1.7-1.7
	c-1.2-0.8-2.5-1.7-3.7-2.1c-1.7-0.8-3.7-1.7-5-2.9c-0.8-0.8-1.7-1.7-2.5-2.9c-0.4-0.8-0.8-2.1-0.8-3.3c0-2.1,0.8-4.2,2.5-5.4
	c1.7-1.7,3.7-2.1,5.8-2.1c0.8,0,1.7,0,2.5,0.4c0.8,0.4,1.7,0.4,2.1,0.8c0.4,0.4,1.2,0.4,1.7,0.8c0.4,0,0.4,0,0.8-0.4
	c0.4-0.4,0.4-0.8,0.4-1.7L830.8,102.9z"/>
<path id="Trazado_109_00000116937922878787521970000015589211736577291177_" class="st1" d="M874.4,14.1c2.9,0,5.8,0.8,8.3,2.1
	s4.6,3.7,5.8,6.2c2.9,5,2.9,11.2,0,16.7c-1.2,2.5-3.3,4.6-5.8,5.8c-5,2.9-11.2,2.9-16.7,0c-2.5-1.2-4.6-3.3-6.2-5.8
	c-2.9-5-2.9-11.2,0-16.7c1.7-2.5,3.7-5,6.2-6.2S871.5,14.1,874.4,14.1z M874.4,16.2c-2.5,0-5,0.8-7.1,1.7c-2.5,1.2-4.2,3.3-5.4,5.4
	c-2.9,4.6-2.9,10,0,14.6c1.2,2.1,2.9,4.2,5.4,5.4c4.6,2.5,10,2.5,14.6,0c2.1-1.2,4.2-2.9,5.4-5.4c2.5-4.6,2.5-10,0-14.6
	c-1.2-2.1-3.3-4.2-5.4-5.4C879.4,17,876.9,16.2,874.4,16.2L874.4,16.2z M865.3,21.2h8.3c2.1,0,4.2,0,5.8,0.8
	c2.1,1.2,2.9,4.2,1.7,6.2l-0.4,0.4c-0.4,1.2-1.2,2.1-2.5,2.5l3.3,5.8c0,0.4,0.4,1.2,1.2,1.7c0.4,0.4,0.4,0.4,0.8,0.4v0.8h-5.4
	l-5-8.7h-0.8v4.6c0,0.8,0,1.7,0.4,2.5c0.4,0.8,1.2,0.8,2.1,0.8v0.8h-9.6v-0.8c0.8,0,1.2,0,1.7-0.4c0.4-0.8,0.8-1.7,0.4-2.5V24.9
	c0-0.8,0-1.7-0.4-2.5c-0.4-0.4-0.8-0.4-1.7-0.4V21.2z M872.3,30.4c0.4,0,0.8,0,1.2,0c0.8,0,2.1-0.4,2.5-1.2c0.8-0.8,1.2-2.1,1.2-2.9
	c0-1.2-0.4-2.1-0.8-2.9c-1.2-0.8-2.5-1.2-3.3-1.2h-0.8V30.4z"/>
<g>
	<circle class="st2" cx="64.1" cy="78.1" r="42.1"/>
	<path id="Trazado_90_00000026140135492440886000000000322570118951899052_" d="M82.1,82.5l-1.4,12.9H48.1v-0.9h1.2
		c0.9,0,1.8-0.2,2.5-0.5c0.5-0.2,0.9-0.7,1.2-1.4c0.2-1.2,0.5-2.3,0.2-3.5V64.9c0-1.2,0-2.3-0.2-3.5c-0.2-0.5-0.7-0.9-1.2-1.2
		c-0.7-0.5-1.6-0.7-2.5-0.5h-1.2v-1.2h19.4v0.9h-1.4c-0.9,0-1.8,0.2-2.8,0.7c-0.5,0.2-0.7,0.7-0.9,1.4C62,62.6,62,63.8,62,64.9v23.3
		c0,1.2,0,2.3,0.2,3.5c0.2,0.5,0.7,0.9,1.2,1.2c1.2,0.2,2.1,0.2,3.2,0.2h3c1.6,0,3.2-0.2,4.9-0.9c1.4-0.7,2.5-1.8,3.5-3.2
		c1.2-2.1,2.1-4.2,2.8-6.5H82.1z"/>
</g>
</svg>
